<svg version="1.1" class="a-icon mobile" xmlns="http://www.w3.org/2000/svg" xmlns:xlink="http://www.w3.org/1999/xlink" x="0px" y="0px"
	 viewBox="0 0 100 100" style="enable-background:new 0 0 100 100;" xml:space="preserve">
<g>
	<path d="M67.2,7.6H32.8c-2.6,0-4.7,2.1-4.7,4.7v75.5c0,2.6,2.1,4.7,4.7,4.7h34.4c2.6,0,4.7-2.1,4.7-4.7V12.4
		C71.9,9.8,69.8,7.6,67.2,7.6z M50,90.4c-2.2,0-3.9-1.8-3.9-3.9s1.8-3.9,3.9-3.9c2.2,0,3.9,1.8,3.9,3.9S52.2,90.4,50,90.4z
		 M67.3,79.4H32.7V15.9h34.6V79.4z"/>
	<circle cx="50" cy="86.5" r="2.4"/>
</g>
</svg>
