<svg version="1.1" class="a-icon tablet" xmlns="http://www.w3.org/2000/svg" xmlns:xlink="http://www.w3.org/1999/xlink" x="0px" y="0px"
	 viewBox="0 0 100 100" style="enable-background:new 0 0 100 100;" xml:space="preserve">
<g>
	<path d="M73.5,9.2h-47c-2.6,0-4.7,2.1-4.7,4.7v72.2c0,2.6,2.1,4.7,4.7,4.7h47c2.6,0,4.7-2.1,4.7-4.7V13.9
		C78.3,11.3,76.1,9.2,73.5,9.2z M50,88.7c-2.2,0-3.9-1.8-3.9-3.9c0-2.2,1.8-3.9,3.9-3.9c2.2,0,3.9,1.8,3.9,3.9
		C53.9,86.9,52.2,88.7,50,88.7z M73.6,77.6H26.4V14.1h47.2V77.6z"/>
	<circle cx="50" cy="84.8" r="2.4"/>
</g>
</svg>
