<svg version="1.1" class="a-icon laptop" xmlns="http://www.w3.org/2000/svg" xmlns:xlink="http://www.w3.org/1999/xlink" x="0px" y="0px"
	 viewBox="0 0 100 100" style="enable-background:new 0 0 100 100;" xml:space="preserve">
<g>
	<path d="M82.6,30.6c0-1.5-1.2-2.6-2.6-2.6H20c-1.5,0-2.6,1.2-2.6,2.6v36.5h65.2V30.6z M79.3,61.9H20.7V31.7h58.7L79.3,61.9
		L79.3,61.9z"/>
	<path d="M19.6,72h60.8c1.2,0,2.2-1.3,2.2-2.9v-1.7H57.1V68c0,0.9-0.8,1.7-1.8,1.7H44.7c-1,0-1.8-0.8-1.8-1.7v-0.6H17.4v1.7
		C17.4,70.7,18.4,72,19.6,72z"/>
</g>
</svg>
